Coordinates
version=1
nRows=5
nColumns=107
inDegrees=yes

Units are S.I. units (second, meters, Newtons, ...)
If the header above contains a line with 'inDegrees', this indicates whether rotational values are in degrees (yes) or radians (no).

endheader
time	sternoclavicular_r2	sternoclavicular_r3	unrotscap_r3	unrotscap_r2	acromioclavicular_r2	acromioclavicular_r3	acromioclavicular_r1	unrothum_r1	unrothum_r3	unrothum_r2	elv_angle	shoulder_elv	shoulder1_r2	shoulder_rot	elbow_flexion	pro_sup	deviation	flexion	proximal_distal_r1	proximal_distal_r3	cmc_flexion	cmc_abduction	mp_flexion	ip_flexion	mcp2_flexion	mcp2_abduction	pm2_flexion	md2_flexion	mcp3_flexion	mcp3_abduction	pm3_flexion	md3_flexion	mcp4_flexion	mcp4_abduction	pm4_flexion	md4_flexion	mcp5_flexion	mcp5_abduction	pm5_flexion	md5_flexion	bicpt_tx	bicpt_ty	bicpt_tz	bicpt2_tx	bicpt2_ty	bicpt2_tz	ptpt_tx	ptpt_ty	ptpt_tz	FCUpt_tx	FCUpt_ty	FCUpt_tz	EDCpt_tx	EDCpt_ty	EDCpt_tz	APLpt_tx	APLpt_ty	APLpt_tz	FPLpt_tx	FPLpt_ty	FPLpt_tz	FPLpt2_tx	FPLpt2_ty	FPLpt2_tz	PEC1pt2_tx	PEC1pt2_ty	PEC1pt2_tz	PEC1pt3_tx	PEC1pt3_ty	PEC1pt3_tz	PEC2pt2_tx	PEC2pt2_ty	PEC2pt2_tz	PEC2pt3_tx	PEC2pt3_ty	PEC2pt3_tz	PEC3pt2_tx	PEC3pt2_ty	PEC3pt2_tz	PEC3pt3_tx	PEC3pt3_ty	PEC3pt3_tz	DELT2pt2a_tx	DELT2pt2a_ty	DELT2pt2a_tz	DELT2pt2_tx	DELT2pt2_ty	DELT2pt2_tz	LAT1pt2_tx	LAT1pt2_ty	LAT1pt2_tz	LAT1pt3_tx	LAT1pt3_ty	LAT1pt3_tz	LAT2pt2_tx	LAT2pt2_ty	LAT2pt2_tz	LAT2pt3_tx	LAT2pt3_ty	LAT2pt3_tz	LAT3pt2_tx	LAT3pt2_ty	LAT3pt2_tz	LAT3pt3_tx	LAT3pt3_ty	LAT3pt3_tz
      0.63333333	     -0.32439284	      0.13739750	     -0.13739750	      0.32439284	     -0.06568295	      0.53082651	      0.23860286	     -0.23860286	     -0.53082651	      0.06568295	     98.18110323	     76.80288808	     -1.71358351	    -20.55619915	     30.17028601	     46.10957812	      0.21842798	     -0.53415905	      0.25738596	     -0.26707953	     18.21564494	    -11.84151118	    -26.01365159	     -9.31317819	     14.60835642	      8.70993439	     41.18228991	     -6.27521778	     26.87063755	      2.65862462	     18.18224835	     18.86080820	     27.24825846	     -6.53691675	     23.41546948	     28.45631693	     23.59319388	    -13.32475547	     32.44072961	      5.32497110	      0.00089794	     -0.03105798	     -0.00485699	      0.01654313	     -0.01839591	     -0.00679166	      0.00414302	     -0.06710301	     -0.00376437	      0.00840110	     -0.18336267	     -0.00041574	     -0.00553314	      0.00163453	      0.00009245	      0.00030759	      0.00012303	      0.00061517	      0.00039371	      0.00118114	      0.00066439	      0.00001622	     -0.00027111	     -0.00032533	      0.00251743	      0.00883234	      0.00614424	     -0.00823498	      0.01988343	     -0.01885939	      0.00251743	      0.00883234	      0.00614424	      0.00055469	      0.01843271	     -0.00968571	      0.00397194	      0.00491155	      0.01602601	      0.00000000	      0.00788961	      0.00000000	     -0.00721094	     -0.03332395	     -0.00650596	      0.01409514	     -0.00044908	     -0.00349370	     -0.00089603	      0.01501924	     -0.00614424	      0.00247476	      0.02167550	     -0.01792069	     -0.00601623	      0.01301383	     -0.00550421	     -0.01254448	      0.02747839	     -0.03076385	     -0.02355291	      0.01454989	     -0.00738162	     -0.01561660	      0.03174522	     -0.03844414
      0.66666667	     -0.32434331	      0.13737652	     -0.13737652	      0.32434331	     -0.06567292	      0.53074545	      0.23856643	     -0.23856643	     -0.53074545	      0.06567292	     98.17933211	     76.79116052	     -1.71355260	    -20.55344179	     30.16510935	     46.10973851	      0.21839419	     -0.53412661	      0.25735213	     -0.26706331	     18.21521635	    -11.84173436	    -26.01417469	     -9.31285787	     14.61184674	      8.71019434	     41.18290249	     -6.27486256	     26.87276551	      2.65857457	     18.18292207	     18.86084681	     27.24864533	     -6.53685461	     23.41559875	     28.45600496	     23.59264981	    -13.32466032	     32.43998754	      5.32493333	      0.00089777	     -0.03105738	     -0.00485689	      0.01654312	     -0.01839450	     -0.00679164	      0.00414301	     -0.06710302	     -0.00376439	      0.00840112	     -0.18336267	     -0.00041574	     -0.00553316	      0.00163454	      0.00009244	      0.00030757	      0.00012303	      0.00061514	      0.00039369	      0.00118106	      0.00066435	      0.00001622	     -0.00027105	     -0.00032526	      0.00251705	      0.00883099	      0.00614330	     -0.00823373	      0.01988040	     -0.01885651	      0.00251705	      0.00883099	      0.00614330	      0.00055460	      0.01842989	     -0.00968423	      0.00397150	      0.00491080	      0.01602494	      0.00000000	      0.00788719	      0.00000000	     -0.00720984	     -0.03331886	     -0.00650394	      0.01409357	     -0.00044900	     -0.00349272	     -0.00089590	      0.01501695	     -0.00614330	      0.00247438	      0.02167219	     -0.01791795	     -0.00601531	      0.01301185	     -0.00550337	     -0.01254257	      0.02747419	     -0.03075915	     -0.02354931	      0.01454767	     -0.00738049	     -0.01561422	      0.03174037	     -0.03843827
      0.70000000	     -0.32455158	      0.13746473	     -0.13746473	      0.32455158	     -0.06571509	      0.53108627	      0.23871962	     -0.23871962	     -0.53108627	      0.06571509	     98.19592909	     76.84047149	     -1.71384227	    -20.37487369	     30.02326269	     45.21587104	      0.21070878	     -0.56349965	      0.24962150	     -0.28174983	     18.35817812	    -11.13714786	    -27.86920918	     -7.47002430	     16.29857621	      8.72422642	     41.14088959	     -6.42261496	     28.00401947	      2.48545955	     18.32863701	     17.87226824	     28.07089603	     -6.79584947	     23.36806313	     26.51535920	     24.12875417	    -13.38046558	     31.17497998	      5.35502697	      0.00089308	     -0.03104112	     -0.00485428	      0.01655303	     -0.01835597	     -0.00689416	      0.00420906	     -0.06706031	     -0.00369238	      0.00830956	     -0.18338270	     -0.00041320	     -0.00542589	      0.00159662	      0.00010160	      0.00031062	      0.00012425	      0.00062125	      0.00039760	      0.00119279	      0.00067095	      0.00001587	     -0.00027172	     -0.00032606	      0.00251866	      0.00883666	      0.00614724	     -0.00823901	      0.01989316	     -0.01886862	      0.00251866	      0.00883666	      0.00614724	      0.00055496	      0.01844173	     -0.00969045	      0.00397335	      0.00491396	      0.01602943	      0.00000000	      0.00789739	      0.00000000	     -0.00721447	     -0.03334025	     -0.00651241	      0.01399164	     -0.00044348	     -0.00342943	     -0.00089647	      0.01502659	     -0.00614724	      0.00247597	      0.02168611	     -0.01792946	     -0.00601918	      0.01302020	     -0.00550691	     -0.01255062	      0.02749184	     -0.03077890	     -0.02356443	      0.01455701	     -0.00738523	     -0.01562424	      0.03176076	     -0.03846296
      0.73333333	     -0.32400718	      0.13723415	     -0.13723415	      0.32400718	     -0.06560486	      0.53019543	      0.23831920	     -0.23831920	     -0.53019543	      0.06560486	     98.16257693	     76.71158097	     -1.71326017	    -21.00454576	     30.44890682	     46.87937852	      0.22025739	     -0.50910186	      0.25921180	     -0.25455093	     17.23373383	    -12.07902970	    -24.30809528	    -10.79372125	     15.44087408	      8.61142061	     42.01667344	     -6.59721676	     27.71605452	      2.52084728	     17.82094178	     19.50631142	     27.41229974	     -6.63851765	     23.42276587	     30.00196164	     23.59835586	    -13.31398067	     32.22157051	      5.36508680	      0.00090716	     -0.03108991	     -0.00486213	      0.01653312	     -0.01847159	     -0.00670247	      0.00408614	     -0.06713979	     -0.00382639	      0.00848015	     -0.18334524	     -0.00041743	     -0.00562551	      0.00166739	      0.00008421	      0.00030384	      0.00012154	      0.00060768	      0.00038891	      0.00116674	      0.00065629	      0.00001860	     -0.00026587	     -0.00031905	      0.00251444	      0.00882184	      0.00613693	     -0.00822519	      0.01985979	     -0.01883697	      0.00251444	      0.00882184	      0.00613693	      0.00055403	      0.01841079	     -0.00967419	      0.00396850	      0.00490571	      0.01601769	      0.00000000	      0.00787073	      0.00000000	     -0.00720237	     -0.03328433	     -0.00649028	      0.01434920	     -0.00046299	     -0.00365479	     -0.00089497	      0.01500139	     -0.00613693	      0.00247182	      0.02164973	     -0.01789938	     -0.00600908	      0.01299836	     -0.00549767	     -0.01252957	      0.02744572	     -0.03072728	     -0.02352490	      0.01453260	     -0.00737284	     -0.01559803	      0.03170748	     -0.03839844
      0.76666667	     -0.32340252	      0.13697805	     -0.13697805	      0.32340252	     -0.06548243	      0.52920599	      0.23787445	     -0.23787445	     -0.52920599	      0.06548243	     98.40516019	     76.56842235	     -1.71749405	    -21.61664543	     30.14240311	     46.48080724	      0.20969143	     -0.55490215	      0.24859111	     -0.27745108	     18.05518071	    -11.32284314	    -27.27403225	     -8.71505372	     16.73148562	      8.93599208	     42.11021026	     -6.58839876	     28.82845825	      2.63251571	     18.22156145	     18.02098454	     28.62692945	     -6.64418751	     23.03876153	     27.33759180	     24.05899699	    -13.36490002	     31.72491886	      5.32994713	      0.00089702	     -0.03105478	     -0.00485647	      0.01653848	     -0.01838833	     -0.00674876	      0.00411559	     -0.06712074	     -0.00379428	      0.00843920	     -0.18335429	     -0.00041661	     -0.00557768	      0.00165035	      0.00008852	      0.00030989	      0.00012396	      0.00061979	      0.00039666	      0.00118999	      0.00066937	      0.00001661	     -0.00027027	     -0.00032433	      0.00250974	      0.00880538	      0.00612548	     -0.00820984	      0.01982273	     -0.01880182	      0.00250974	      0.00880538	      0.00612548	      0.00055299	      0.01837644	     -0.00965614	      0.00396311	      0.00489656	      0.01600460	      0.00000000	      0.00784117	      0.00000000	     -0.00718893	     -0.03322222	     -0.00646575	      0.01469168	     -0.00048210	     -0.00387977	     -0.00089330	      0.01497339	     -0.00612548	      0.00246721	      0.02160933	     -0.01786598	     -0.00599786	      0.01297410	     -0.00548741	     -0.01250619	      0.02739450	     -0.03066993	     -0.02348100	      0.01450547	     -0.00735908	     -0.01556893	      0.03164831	     -0.03832678
